<?xml version="1.0" standalone="no"?>
<!DOCTYPE svg PUBLIC "-//W3C//DTD SVG 20010904//EN"
 "http://www.w3.org/TR/2001/REC-SVG-20010904/DTD/svg10.dtd">
<svg version="1.0" xmlns="http://www.w3.org/2000/svg"
 width="243.000000pt" height="196.000000pt" viewBox="0 0 243.000000 196.000000"
 preserveAspectRatio="xMidYMid meet">

<g transform="translate(0.000000,196.000000) scale(0.100000,-0.100000)"
fill="#000000" stroke="none">
<path d="M1705 1945 c-118 -14 -226 -46 -302 -91 -59 -34 -150 -119 -170 -158
l-15 -29 -28 50 c-35 62 -77 98 -155 134 -118 56 -163 60 -612 66 -402 5 -413
5 -413 -14 0 -11 14 -30 31 -42 66 -49 64 -16 67 -860 2 -548 -1 -780 -9 -820
-9 -44 -20 -64 -50 -93 -73 -70 -81 -68 310 -68 301 0 365 3 463 20 124 21
232 55 306 95 l48 26 94 -45 c173 -80 314 -111 510 -110 110 0 148 4 206 22
218 67 361 197 415 375 30 96 24 238 -12 317 -68 146 -188 229 -554 380 -241
99 -320 144 -401 224 -55 56 -74 82 -87 125 -32 101 -16 209 45 298 54 80 152
133 278 153 62 10 92 9 175 -5 196 -31 339 -130 442 -305 27 -47 54 -85 59
-85 12 0 17 159 9 253 l-7 74 -56 25 c-116 51 -222 78 -347 88 -44 3 -91 8
-105 10 -14 1 -75 -3 -135 -10z m-955 -105 c99 -39 162 -98 201 -186 31 -70
32 -219 1 -287 -37 -82 -77 -123 -160 -164 l-76 -38 -188 -3 -188 -4 0 357 0
357 178 -5 c152 -4 185 -7 232 -27z m464 -634 c62 -106 205 -199 481 -311 256
-105 377 -174 458 -265 65 -72 90 -144 85 -240 -8 -131 -76 -228 -206 -292
-60 -30 -76 -33 -175 -37 -138 -4 -208 10 -326 66 -77 37 -108 59 -171 122
-103 103 -147 178 -152 256 -5 96 17 85 82 -42 30 -59 60 -109 66 -110 13 -4
50 74 69 147 29 108 13 266 -36 361 -10 21 -44 65 -75 99 -45 48 -76 70 -148
105 -84 40 -188 71 -261 77 -45 4 -36 19 23 39 68 23 158 78 202 124 l35 36
11 -45 c7 -25 23 -65 38 -90z m-421 -112 c160 -37 269 -114 331 -237 45 -88
65 -175 65 -277 l0 -75 -20 38 c-35 67 -44 44 -41 -104 l4 -134 -36 -47 c-52
-68 -136 -124 -230 -154 -94 -29 -268 -48 -380 -41 -91 6 -121 26 -136 93 -5
21 -10 245 -10 497 l0 457 191 0 c139 0 209 -4 262 -16z"/>
</g>
</svg>
